Coordinates
version=1
nRows=4
nColumns=63
inDegrees=yes

Units are S.I. units (second, meters, Newtons, ...)
If the header above contains a line with 'inDegrees', this indicates whether rotational values are in degrees (yes) or radians (no).

endheader
time	pelvis_tilt	pelvis_list	pelvis_rotation	pelvis_tx	pelvis_ty	pelvis_tz	hip_flexion_r	hip_adduction_r	hip_rotation_r	knee_angle_r	knee_angle_r_beta	ankle_angle_r	subtalar_angle_r	mtp_angle_r	hip_flexion_l	hip_adduction_l	hip_rotation_l	knee_angle_l	knee_angle_l_beta	ankle_angle_l	subtalar_angle_l	mtp_angle_l	L5_S1_Flex_Ext	L5_S1_Lat_Bending	L5_S1_axial_rotation	L4_L5_Flex_Ext	L4_L5_Lat_Bending	L4_L5_axial_rotation	L3_L4_Flex_Ext	L3_L4_Lat_Bending	L3_L4_axial_rotation	L2_L3_Flex_Ext	L2_L3_Lat_Bending	L2_L3_axial_rotation	L1_L2_Flex_Ext	L1_L2_Lat_Bending	L1_L2_axial_rotation	L1_T12_Flex_Ext	L1_T12_Lat_Bending	L1_T12_axial_rotation	Abs_r3	Abs_r2	Abs_r1	Abs_t1	Abs_t2	neck_flexion	neck_bending	neck_rotation	arm_flex_r	arm_add_r	arm_rot_r	elbow_flex_r	pro_sup_r	wrist_flex_r	wrist_dev_r	arm_flex_l	arm_add_l	arm_rot_l	elbow_flex_l	pro_sup_l	wrist_flex_l	wrist_dev_l
      2.35593220	     -7.36594632	    -22.17733745	     77.52591089	      0.22962069	      0.60516278	      0.62024370	     30.11090116	      0.27566064	     -3.32115138	     15.45206373	      0.26968939	     42.34132364	     14.96554511	      0.00000000	     26.12023411	     -0.16669211	    -11.98653622	     10.98120765	      0.19165823	     42.25024615	     11.79496349	      0.00000000	     -0.05392489	     -0.09966807	      0.24067673	     -0.10014392	     -0.13255853	      0.25571902	     -0.08859321	     -0.24233294	      0.25571902	     -0.06163076	     -0.24233294	      0.21059214	     -0.05007466	     -0.20324313	      0.19554984	     -0.03081268	     -0.15438584	      0.18050755	     -0.38518013	     -1.12746513	      1.33857176	      0.00000000	      0.00000000	     17.23615241	     -0.07002036	      3.05979182	      5.00245579	     -6.41626657	     14.77684029	     71.05187433	     88.58138427	     -7.67990360	     -6.70353933	     11.03758617	     -9.98807889	     35.27988710	     60.28106293	     81.90637846	      3.32702509	      6.10013598
      2.37288136	     -7.70030541	    -21.91304787	     78.26888483	      0.23165502	      0.60622163	      0.61681622	     28.85620757	     -0.15217751	     -2.65917210	     14.30731506	      0.24970975	     41.51746875	     13.06301412	      0.00000000	     25.45363737	      0.46937741	    -11.68737629	     10.52072311	      0.18362126	     41.72349814	     11.78799830	      0.00000000	     -0.06949109	     -0.22640072	      0.07557112	     -0.12905190	     -0.30111295	      0.08029432	     -0.11416691	     -0.55047070	      0.08029432	     -0.07942136	     -0.55047070	      0.06612473	     -0.06452942	     -0.46167634	      0.06140154	     -0.03970721	     -0.35069471	      0.05667834	     -0.49636788	     -2.56109018	      0.42030392	      0.00000000	      0.00000000	     17.54437519	      1.31000588	      2.83195761	      7.86193881	     -5.76541278	     23.41726478	     64.52566150	     88.40722177	     -7.94297244	     -6.97493790	     10.40404217	     -9.68758049	     37.69187789	     57.40005812	     76.97221398	      2.77605914	      5.41198581
      2.38983051	     -7.82444364	    -21.56436539	     79.27005256	      0.23283474	      0.60776299	      0.61268343	     27.34197814	     -0.48010515	     -1.64546702	     13.04691757	      0.22771167	     40.39613188	     10.57644893	      0.00000000	     24.60395539	      1.01280065	    -11.27394539	     10.11144986	      0.17647809	     41.08699758	     11.84293354	      0.00000000	     -0.09420783	     -0.31352728	     -0.11606264	     -0.17495336	     -0.41699128	     -0.12331656	     -0.15477405	     -0.76231022	     -0.12331656	     -0.10767013	     -0.76231022	     -0.10155481	     -0.08748139	     -0.63934482	     -0.09430090	     -0.05383035	     -0.48565375	     -0.08704698	     -0.67291712	     -3.54668326	     -0.64550561	      0.00000000	      0.00000000	     17.47265203	      2.10340955	      2.90707706	     11.13435281	     -5.16243466	     33.57073159	     57.47249593	     88.13719020	     -7.32442718	     -5.14588475	      9.17714130	     -9.34165213	     39.22818835	     54.59808453	     74.79487784	      0.55816835	      3.61369988
      2.40677966	     -7.64542112	    -21.22298032	     80.37233848	      0.23311432	      0.60945646	      0.60845538	     25.76842284	     -0.46633215	      0.41720184	     11.71356982	      0.20444036	     38.84717359	      6.77378540	      0.00000000	     23.74326812	      1.29518975	    -10.64932843	      9.84952852	      0.17190670	     40.49945888	     11.56574030	      0.00000000	     -0.11949844	     -0.34271224	     -0.26756671	     -0.22192055	     -0.45580728	     -0.28428963	     -0.19632398	     -0.83327054	     -0.28428963	     -0.13657476	     -0.83327054	     -0.23412087	     -0.11096625	     -0.69885880	     -0.21739795	     -0.06828141	     -0.53086126	     -0.20067503	     -0.85356538	     -3.87682939	     -1.48812575	      0.00000000	      0.00000000	     17.12372320	      2.07671222	      3.18482741	     14.60332795	     -4.30965380	     45.44741915	     50.16355897	     87.78358608	     -7.09558855	     -2.74811698	      8.02067186	     -8.74574057	     40.78473818	     51.12574974	     75.45230254	     -2.39951707	      1.14103509
